<svg xmlns="http://www.w3.org/2000/svg" version="1.1" xmlns:xlink="http://www.w3.org/1999/xlink" xmlns:svgjs="http://svgjs.dev/svgjs" width="1500" height="393" viewBox="0 0 1500 393"><g transform="matrix(1,0,0,1,3.5883404596652326,3.794035595631925)"><svg viewBox="0 0 396 104" data-background-color="#ffffff" preserveAspectRatio="xMidYMid meet" height="393" width="1500" xmlns="http://www.w3.org/2000/svg" xmlns:xlink="http://www.w3.org/1999/xlink"><g id="tight-bounds" transform="matrix(1,0,0,1,0.2400000000000091,0.1930199789634912)"><svg viewBox="0 0 395.52 103.61396004207299" height="103.61396004207299" width="395.52"><g><svg viewBox="0 0 570.5057269631506 149.45478761461794" height="103.61396004207299" width="395.52"><g transform="matrix(1,0,0,1,174.9857269631506,20.655473541528245)"><svg viewBox="0 0 395.52 108.14384053156145" height="108.14384053156145" width="395.52"><g id="textblocktransform"><svg viewBox="0 0 395.52 108.14384053156145" height="108.14384053156145" width="395.52" id="textblock"><g><svg viewBox="0 0 395.52 108.14384053156145" height="108.14384053156145" width="395.52"><g transform="matrix(1,0,0,1,0,0)"><svg width="395.52" viewBox="2.85 -35.4 150.49 41.15" height="108.14384053156145" data-palette-color="#556970"><path d="M12.75-35.4Q17.2-35.4 19.93-32.63 22.65-29.85 22.65-25.3L22.65-25.3 22.65-9.6Q22.65-5.65 20.53-3 18.4-0.35 14.75 0.2L14.75 0.2Q14.55 0.25 14.55 0.45L14.55 0.45 14.55 5.25Q14.55 5.75 14.05 5.75L14.05 5.75 11.45 5.75Q10.95 5.75 10.95 5.25L10.95 5.25 10.95 0.45Q10.95 0.25 10.75 0.2L10.75 0.2Q7.15-0.35 5-3 2.85-5.65 2.85-9.6L2.85-9.6 2.85-25.3Q2.85-28.3 4.1-30.6 5.35-32.9 7.6-34.15 9.85-35.4 12.75-35.4L12.75-35.4ZM19.1-9.45L19.1-25.55Q19.1-28.55 17.35-30.43 15.6-32.3 12.75-32.3L12.75-32.3Q9.9-32.3 8.15-30.43 6.4-28.55 6.4-25.55L6.4-25.55 6.4-9.45Q6.4-6.45 8.15-4.58 9.9-2.7 12.75-2.7L12.75-2.7Q15.6-2.7 17.35-4.58 19.1-6.45 19.1-9.45L19.1-9.45ZM39.55 0.4Q36.5 0.4 34.17-0.9 31.85-2.2 30.57-4.55 29.3-6.9 29.3-10L29.3-10 29.3-34.5Q29.3-35 29.8-35L29.8-35 32.35-35Q32.85-35 32.85-34.5L32.85-34.5 32.85-9.8Q32.85-6.6 34.7-4.65 36.55-2.7 39.55-2.7L39.55-2.7Q42.55-2.7 44.4-4.65 46.25-6.6 46.25-9.8L46.25-9.8 46.25-34.5Q46.25-35 46.75-35L46.75-35 49.3-35Q49.8-35 49.8-34.5L49.8-34.5 49.8-10Q49.8-6.9 48.52-4.55 47.25-2.2 44.92-0.9 42.6 0.4 39.55 0.4L39.55 0.4ZM58.24 0Q57.74 0 57.74-0.5L57.74-0.5 57.74-34.5Q57.74-35 58.24-35L58.24-35 60.8-35Q61.3-35 61.3-34.5L61.3-34.5 61.3-0.5Q61.3 0 60.8 0L60.8 0 58.24 0ZM67.89 0Q67.39 0 67.39-0.5L67.39-0.5 67.39-2.85Q67.39-3.15 67.54-3.5L67.54-3.5 82.74-31.65Q82.84-31.9 82.64-31.9L82.64-31.9 67.89-31.9Q67.39-31.9 67.39-32.4L67.39-32.4 67.39-34.5Q67.39-35 67.89-35L67.89-35 86.24-35Q86.74-35 86.74-34.5L86.74-34.5 86.74-32.15Q86.74-31.9 86.59-31.5L86.59-31.5 71.39-3.35Q71.29-3.1 71.49-3.1L71.49-3.1 86.24-3.1Q86.74-3.1 86.74-2.6L86.74-2.6 86.74-0.5Q86.74 0 86.24 0L86.24 0 67.89 0ZM122.14-34.65Q122.39-35 122.74-35L122.74-35 125.34-35Q125.84-35 125.84-34.5L125.84-34.5 125.84-0.5Q125.84 0 125.34 0L125.34 0 122.79 0Q122.29 0 122.29-0.5L122.29-0.5 122.29-27.7Q122.29-27.85 122.19-27.9 122.09-27.95 122.04-27.8L122.04-27.8 115.39-16.25Q115.14-15.9 114.79-15.9L114.79-15.9 114.24-15.9Q113.89-15.9 113.64-16.25L113.64-16.25 106.94-27.75Q106.89-27.9 106.79-27.85 106.69-27.8 106.69-27.65L106.69-27.65 106.69-0.5Q106.69 0 106.19 0L106.19 0 103.64 0Q103.14 0 103.14-0.5L103.14-0.5 103.14-34.5Q103.14-35 103.64-35L103.64-35 106.24-35Q106.59-35 106.84-34.65L106.84-34.65 114.39-21.8Q114.44-21.75 114.54-21.75 114.64-21.75 114.69-21.8L114.69-21.8 122.14-34.65ZM153.34-32.4Q153.34-31.9 152.84-31.9L152.84-31.9 137.84-31.9Q137.63-31.9 137.63-31.7L137.63-31.7 137.63-19.3Q137.63-19.1 137.84-19.1L137.84-19.1 147.94-19.1Q148.44-19.1 148.44-18.6L148.44-18.6 148.44-16.5Q148.44-16 147.94-16L147.94-16 137.84-16Q137.63-16 137.63-15.8L137.63-15.8 137.63-3.3Q137.63-3.1 137.84-3.1L137.84-3.1 152.84-3.1Q153.34-3.1 153.34-2.6L153.34-2.6 153.34-0.5Q153.34 0 152.84 0L152.84 0 134.59 0Q134.09 0 134.09-0.5L134.09-0.5 134.09-34.5Q134.09-35 134.59-35L134.59-35 152.84-35Q153.34-35 153.34-34.5L153.34-34.5 153.34-32.4Z" opacity="1" transform="matrix(1,0,0,1,0,0)" fill="#ffffff" class="wordmark-text-0" data-fill-palette-color="primary" id="text-0"></path></svg></g></svg></g></svg></g></svg></g><g><svg viewBox="0 0 149.4555616658217 149.45478761461794" height="149.45478761461794" width="149.4555616658217"><g><svg xmlns="http://www.w3.org/2000/svg" xmlns:xlink="http://www.w3.org/1999/xlink" version="1.2" baseProfile="tiny" x="0" y="0" viewBox="4.99953387520579 5.000033865625884 90.00043225916836 89.99996613437412" xml:space="preserve" height="149.45478761461794" width="149.4555616658217" class="icon-icon-0" data-fill-palette-color="accent" id="icon-0"><path d="M5.732 50.518L14.482 59.268C15.458 60.245 17.042 60.245 18.017 59.268L32.5 44.786 46.982 59.268C47.47 59.756 48.11 60 48.75 60S50.03 59.756 50.518 59.268L59.268 50.518A2.5 2.5 0 0 0 59.268 46.983L44.786 32.5 59.268 18.018A2.5 2.5 0 0 0 59.268 14.483L50.518 5.733A2.5 2.5 0 0 0 46.983 5.733L32.5 20.214 18.018 5.732A2.5 2.5 0 0 0 14.483 5.732L5.733 14.482A2.5 2.5 0 0 0 5.733 18.017L20.214 32.5 5.732 46.982A2.5 2.5 0 0 0 5.732 50.518M25.518 34.268A2.5 2.5 0 0 0 25.518 30.733L11.036 16.25 16.25 11.036 30.732 25.518C31.708 26.495 33.292 26.495 34.267 25.518L48.75 11.036 53.964 16.25 39.482 30.732A2.5 2.5 0 0 0 39.482 34.267L53.964 48.75 48.75 53.964 34.268 39.482C33.78 38.994 33.14 38.75 32.5 38.75S31.22 38.994 30.732 39.482L16.25 53.964 11.036 48.75z" fill="#ffffff" data-fill-palette-color="accent"></path><path d="M85.518 39.482A2.5 2.5 0 0 0 81.983 39.482L50 71.464 34.268 55.732A2.5 2.5 0 0 0 30.733 55.732L21.983 64.482A2.5 2.5 0 0 0 21.983 68.017L48.233 94.267C48.72 94.756 49.36 95 50 95S51.28 94.756 51.768 94.268L94.268 51.768A2.5 2.5 0 0 0 94.268 48.233zM50 88.964L27.286 66.25 32.5 61.036 48.232 76.768C49.208 77.745 50.792 77.745 51.767 76.768L83.75 44.786 88.964 50z" fill="#ffffff" data-fill-palette-color="accent"></path></svg></g></svg></g></svg></g><defs></defs></svg><rect width="395.52" height="103.61396004207299" fill="none" stroke="none" visibility="hidden"></rect></g></svg></g></svg>